<svg xmlns="http://www.w3.org/2000/svg" width="42.522" height="42.522" viewBox="0 0 42.522 42.522"><defs><style>.a{fill:#eab14d;}.b{fill:#e49542;}.c{fill:#f4fbff;}.d{fill:#daf1f4;}.e{fill:#365e7d;}.f{fill:#1e272e;}.g{fill:#fff;}</style></defs><ellipse class="a" cx="20.638" cy="20.638" rx="20.638" ry="20.638" transform="translate(0.623 0.623)"/><path class="b" d="M243.875,7.5q-.553,0-1.1.029a20.638,20.638,0,0,1,0,41.218q.546.029,1.1.029a20.638,20.638,0,1,0,0-41.276Z" transform="translate(-222.614 -6.877)"/><ellipse class="c" cx="16.082" cy="16.082" rx="16.082" ry="16.082" transform="translate(5.179 5.179)"/><path class="d" d="M241.4,62.357c-.445,0-.886.019-1.322.054a16.082,16.082,0,0,1,0,32.055c.436.036.877.054,1.322.054a16.082,16.082,0,1,0,0-32.164Z" transform="translate(-220.138 -57.178)"/><ellipse class="e" cx="1.663" cy="1.663" rx="1.663" ry="1.663" transform="translate(19.598 19.598)"/><g transform="translate(0)"><path class="f" d="M249.123,98.109a.623.623,0,0,0,.623-.623v-.914a.623.623,0,0,0-1.246,0v.914A.623.623,0,0,0,249.123,98.109Z" transform="translate(-227.862 -87.98)"/><path class="f" d="M349.889,140.981a.623.623,0,0,0-.881,0l-.646.646a.623.623,0,0,0,.881.881l.646-.646A.623.623,0,0,0,349.889,140.981Z" transform="translate(-319.263 -129.105)"/><path class="f" d="M389.851,248.5a.623.623,0,0,0,0,1.246h.914a.623.623,0,0,0,0-1.246Z" transform="translate(-356.902 -227.863)"/><path class="f" d="M348.665,348.362a.623.623,0,1,0-.881.881l.646.646a.623.623,0,0,0,.881-.881Z" transform="translate(-318.733 -319.263)"/><path class="f" d="M247.683,389.852v.914a.623.623,0,0,0,1.246,0v-.914a.623.623,0,0,0-1.246,0Z" transform="translate(-227.113 -356.903)"/><path class="f" d="M141.049,347.785l-.646.646a.623.623,0,0,0,.881.881l.646-.646a.623.623,0,0,0-.881-.881Z" transform="translate(-128.575 -318.734)"/><path class="f" d="M96.571,247.684a.623.623,0,1,0,0,1.246h.914a.623.623,0,1,0,0-1.246Z" transform="translate(-87.979 -227.114)"/><path class="f" d="M142.508,141.05l-.646-.646a.623.623,0,0,0-.881.881l.646.646a.623.623,0,1,0,.881-.881Z" transform="translate(-129.105 -128.576)"/><path class="f" d="M192.386,156.311l4.437,2.281a.623.623,0,0,0,.57-1.108l-4.435-2.281a2.285,2.285,0,0,0-1.617-2.65V146.2a.623.623,0,0,0-1.246,0v6.349a2.294,2.294,0,0,0-1.575,1.575h-3.092a.623.623,0,0,0,0,1.246h3.092a2.283,2.283,0,0,0,3.867.936Zm-1.669-.519a1.04,1.04,0,1,1,1.04-1.04A1.041,1.041,0,0,1,190.717,155.792Z" transform="translate(-169.456 -133.491)"/><path class="g" d="M87.644,70.938a.623.623,0,0,0,.574-.669,16.706,16.706,0,1,0,0,2.586.623.623,0,1,0-1.242-.1,15.458,15.458,0,1,1,0-2.4A.622.622,0,0,0,87.644,70.938Z" transform="translate(-50.301 -50.301)"/><path class="g" d="M141.275,6.227a21.267,21.267,0,0,0-26.5-2.873.623.623,0,1,0,.673,1.049,20.012,20.012,0,1,1,4.982,36.016.623.623,0,0,0-.361,1.192A21.263,21.263,0,0,0,141.275,6.227Z" transform="translate(-104.98 0)"/><path class="g" d="M13.185,91.736A20.019,20.019,0,0,1,8.517,57.984a.623.623,0,0,0-.794-.96,21.265,21.265,0,0,0,4.958,35.851.623.623,0,0,0,.5-1.14Z" transform="translate(0 -52.157)"/></g></svg>