<svg xmlns="http://www.w3.org/2000/svg" width="27.14" height="27.14" viewBox="0 0 27.14 27.14"><defs><style>.a{fill:#fff;}</style></defs><g transform="translate(0 0)"><path class="a" d="M10.46,9.047H1.979A1.981,1.981,0,0,1,0,7.068V1.979A1.981,1.981,0,0,1,1.979,0H10.46a1.981,1.981,0,0,1,1.979,1.979V7.068A1.981,1.981,0,0,1,10.46,9.047ZM1.979,1.7a.283.283,0,0,0-.283.283V7.068a.283.283,0,0,0,.283.283H10.46a.283.283,0,0,0,.283-.283V1.979A.283.283,0,0,0,10.46,1.7Zm0,0"/><path class="a" d="M10.46,229.164H1.979A1.981,1.981,0,0,1,0,227.185V215.311a1.981,1.981,0,0,1,1.979-1.979H10.46a1.981,1.981,0,0,1,1.979,1.979v11.874A1.981,1.981,0,0,1,10.46,229.164ZM1.979,215.028a.283.283,0,0,0-.283.283v11.874a.283.283,0,0,0,.283.283H10.46a.283.283,0,0,0,.283-.283V215.311a.283.283,0,0,0-.283-.283Zm0,0" transform="translate(0 -202.024)"/><path class="a" d="M287.792,350.379h-8.481a1.981,1.981,0,0,1-1.979-1.979v-5.089a1.981,1.981,0,0,1,1.979-1.979h8.481a1.981,1.981,0,0,1,1.979,1.979V348.4A1.981,1.981,0,0,1,287.792,350.379Zm-8.481-7.351a.283.283,0,0,0-.283.283V348.4a.283.283,0,0,0,.283.283h8.481a.283.283,0,0,0,.283-.283v-5.089a.283.283,0,0,0-.283-.283Zm0,0" transform="translate(-262.631 -323.239)"/><path class="a" d="M287.792,15.832h-8.481a1.981,1.981,0,0,1-1.979-1.979V1.979A1.981,1.981,0,0,1,279.311,0h8.481a1.981,1.981,0,0,1,1.979,1.979V13.853A1.981,1.981,0,0,1,287.792,15.832ZM279.311,1.7a.283.283,0,0,0-.283.283V13.853a.283.283,0,0,0,.283.283h8.481a.283.283,0,0,0,.283-.283V1.979a.283.283,0,0,0-.283-.283Zm0,0" transform="translate(-262.631)"/></g></svg>