<svg xmlns="http://www.w3.org/2000/svg" xmlns:xlink="http://www.w3.org/1999/xlink" width="35" height="35" viewBox="0 0 35 35"><defs><style>.a{fill:#2a333b;}.b{clip-path:url(#c);}.c{fill:#ffbeaa;}.d{fill:#faa68e;}.e{fill:#ffcdbe;}.f{fill:#414952;}.g{fill:#333940;}.h{fill:#c8fffa;}.i{fill:#9bf5f0;}.j{fill:#4a7aff;}.k{fill:#2864f0;}.l{fill:#e9edf5;}.m{fill:#1e272e;}.n{fill:#27488f;}.o{fill:#12254c;}.p{fill:#1b3b6b;}.q{filter:url(#a);}</style><filter id="a" x="-9" y="-6" width="53" height="53" filterUnits="userSpaceOnUse"><feOffset dy="3" input="SourceAlpha"/><feGaussianBlur stdDeviation="3" result="b"/><feFlood flood-opacity="0.161"/><feComposite operator="in" in2="b"/><feComposite in="SourceGraphic"/></filter><clipPath id="c"><g class="q" transform="matrix(1, 0, 0, 1, 0, 0)"><circle class="a" cx="17.5" cy="17.5" r="17.5" transform="translate(1543 492.5)"/></g></clipPath></defs><g class="b" transform="translate(-1543 -492.5)"><g transform="translate(1543 492)"><path class="a" d="M34.514,17.75A17.508,17.508,0,0,1,17.257,35.5,17.508,17.508,0,0,1,0,17.75,17.508,17.508,0,0,1,17.257,0,17.508,17.508,0,0,1,34.514,17.75Zm0,0"/><path class="c" d="M25.46,49.356V47.578H20.27v1.778a1.916,1.916,0,0,1-1.226,1.8l-7.981,2.99a16.905,16.905,0,0,0,23.605,0l-7.981-2.99A1.916,1.916,0,0,1,25.46,49.356Zm0,0" transform="translate(-5.608 -23.449)"/><path class="d" d="M46.773,54.147l-7.981-2.99a1.916,1.916,0,0,1-1.226-1.8V47.578H34.941V58.949h.029A16.941,16.941,0,0,0,46.773,54.147Zm0,0" transform="translate(-17.713 -23.449)"/><path class="c" d="M48.244,30.571a2.23,2.23,0,1,1-2.229-2.293A2.262,2.262,0,0,1,48.244,30.571Zm0,0" transform="translate(-22.197 -13.937)"/><path class="c" d="M21.63,30.571A2.23,2.23,0,1,1,19.4,28.278,2.262,2.262,0,0,1,21.63,30.571Zm0,0" transform="translate(-8.705 -13.937)"/><path class="e" d="M31.222,31.485l-1.489.787a3.158,3.158,0,0,1-2.959,0l-1.489-.787a6.831,6.831,0,0,1-3.593-6.053V19.464a6.564,6.564,0,1,1,13.122,0v5.968A6.831,6.831,0,0,1,31.222,31.485Zm0,0" transform="translate(-10.997 -6.267)"/><path class="c" d="M34.97,12.715h-.029V32.639a3.163,3.163,0,0,0,1.509-.367l1.489-.787a6.831,6.831,0,0,0,3.593-6.053V19.463A6.657,6.657,0,0,0,34.97,12.715Zm0,0" transform="translate(-17.713 -6.267)"/><path class="f" d="M17.773,11.165v5.928a4,4,0,0,0,1.247,2.919v3.344a1.368,1.368,0,0,0,1.348,1.387v-3.9a3.753,3.753,0,0,0,1.258.217h3.46a3.91,3.91,0,0,0,3.854-3.964V11.858a.684.684,0,0,0-.674-.693H17.773Zm0,0" transform="translate(-9.01 -5.503)"/><path class="g" d="M38.9,11.166h-.68a.748.748,0,0,0-.647.379.672.672,0,0,0-.6-.379H34.941v9.712a3.921,3.921,0,0,0,2.546-2.659,3.163,3.163,0,0,0,3.107,2.84c.093,0,.184-.005.275-.013v3.7a1.368,1.368,0,0,0,1.348-1.387V20.591a3.237,3.237,0,0,0,1.507-2.753V16.129A4.9,4.9,0,0,0,38.9,11.166Zm0,0" transform="translate(-17.713 -5.503)"/><path class="h" d="M27.845,55.1l-5.213,2.588L17.464,55.1l-6.816,2.555a16.91,16.91,0,0,0,23.89.123Zm0,0" transform="translate(-5.398 -27.155)"/><path class="i" d="M34.977,62.655A16.947,16.947,0,0,0,46.86,57.776L40.168,55.1l-5.213,2.588Zm0,0" transform="translate(-17.72 -27.155)"/><path class="j" d="M34.276,63.217H32.108l-.674-2.924H34.95Zm0,0" transform="translate(-15.935 -29.716)"/><path class="k" d="M32.282,68q.664.053,1.34.053T34.962,68l-.256-1.946H32.538Zm0,0" transform="translate(-16.365 -32.557)"/><path class="l" d="M38.686,53.548l-3.64,3.374,1.82,2.589,3.348-5.177Zm0,0" transform="translate(-17.766 -26.392)"/><path class="m" d="M26,53.548l3.64,3.374-1.82,2.589-3.348-5.177Zm0,0" transform="translate(-12.406 -26.392)"/><path class="n" d="M49.851,57.716,43.1,55.1l-2.363,7.319A17.038,17.038,0,0,0,49.851,57.716Zm0,0" transform="translate(-20.65 -27.155)"/><path class="o" d="M40.734,62.417a16.77,16.77,0,0,0,2.578-.651l-.215-1.11,1.717-.531V55.763L43.1,55.1Zm0,0" transform="translate(-20.65 -27.155)"/><path class="n" d="M10.648,57.653,17.464,55.1l2.363,7.319A17.055,17.055,0,0,1,10.648,57.653Zm0,0" transform="translate(-5.398 -27.155)"/><path class="p" d="M25.071,62.417a16.77,16.77,0,0,1-2.578-.651l.215-1.11-1.717-.531V55.763l1.717-.665Zm0,0" transform="translate(-10.641 -27.155)"/></g></g></svg>