<svg xmlns="http://www.w3.org/2000/svg" width="26.57" height="28.365" viewBox="0 0 26.57 28.365"><defs><style>.a{fill:#fff;}</style></defs><g transform="translate(-13.162)"><g transform="translate(20.449 19.024)"><rect class="a" width="1.296" height="9.341"/></g><g transform="translate(25.836 17.455)"><g transform="translate(0)"><rect class="a" width="1.296" height="10.91"/></g></g><g transform="translate(15.131 24.888)"><g transform="translate(0)"><rect class="a" width="1.227" height="3.477"/></g></g><g transform="translate(31.155 13.501)"><rect class="a" width="1.296" height="14.864"/></g><g transform="translate(36.541 9.955)"><g transform="translate(0)"><rect class="a" width="1.227" height="18.41"/></g></g><g transform="translate(13.162)"><g transform="translate(0)"><path class="a" d="M39.534.184A.755.755,0,0,0,39.044,0H34.373a.682.682,0,1,0,0,1.364l3.014-.007L30.016,8.734l-2.584-2.6a.66.66,0,0,0-.968,0L13.372,19.242a.685.685,0,0,0,.948.989c.007-.007.014-.014.02-.014L26.954,7.6l2.584,2.577a.7.7,0,0,0,.484.191.71.71,0,0,0,.484-.191l7.862-7.862-.007,3.007A.672.672,0,0,0,39.037,6h.007a.672.672,0,0,0,.682-.668V5.325L39.732.661A.7.7,0,0,0,39.534.184Z" transform="translate(-13.162)"/></g></g></g></svg>