<svg xmlns="http://www.w3.org/2000/svg" width="28" height="28" viewBox="0 0 28 28"><defs><style>.a{fill:#fff;}</style></defs><g transform="translate(0 9.333)"><path class="a" d="M17.267,167h-.513a.459.459,0,0,1-.432-.3c-.057-.149-.118-.3-.184-.44a.46.46,0,0,1,.093-.521l.366-.366a1.4,1.4,0,0,0,0-1.978l-1.319-1.319a1.4,1.4,0,0,0-1.979,0l-.366.365a.462.462,0,0,1-.521.093c-.145-.066-.291-.127-.441-.187a.459.459,0,0,1-.3-.433V161.4a1.4,1.4,0,0,0-1.4-1.4H8.4A1.4,1.4,0,0,0,7,161.4v.513a.459.459,0,0,1-.3.432c-.149.057-.3.118-.44.184a.461.461,0,0,1-.521-.093l-.366-.366a1.4,1.4,0,0,0-1.978,0l-1.319,1.323a1.4,1.4,0,0,0,0,1.979l.365.366a.46.46,0,0,1,.093.521c-.066.145-.127.291-.184.441a.459.459,0,0,1-.435.3H1.4A1.4,1.4,0,0,0,0,168.4v1.867a1.4,1.4,0,0,0,1.4,1.4h.513a.459.459,0,0,1,.432.3c.057.149.118.3.184.44a.46.46,0,0,1-.093.521l-.366.366a1.4,1.4,0,0,0,0,1.978l1.319,1.319a1.4,1.4,0,0,0,1.979,0l.366-.365a.462.462,0,0,1,.521-.093c.145.066.291.127.441.187a.459.459,0,0,1,.305.433v.513a1.4,1.4,0,0,0,1.4,1.4h1.867a1.4,1.4,0,0,0,1.4-1.4v-.513a.459.459,0,0,1,.3-.432c.149-.057.3-.118.44-.184a.461.461,0,0,1,.521.093l.366.366a1.4,1.4,0,0,0,1.978,0l1.319-1.319a1.4,1.4,0,0,0,0-1.979l-.365-.366a.46.46,0,0,1-.093-.521c.066-.145.127-.291.187-.441a.459.459,0,0,1,.433-.3h.513a1.4,1.4,0,0,0,1.4-1.4V168.4A1.4,1.4,0,0,0,17.267,167Zm.467,3.267a.467.467,0,0,1-.467.467h-.513a1.4,1.4,0,0,0-1.307.9q-.074.2-.161.386a1.4,1.4,0,0,0,.28,1.566l.365.365a.467.467,0,0,1,0,.66h0l-1.319,1.319a.467.467,0,0,1-.66,0l-.366-.365a1.4,1.4,0,0,0-1.566-.28c-.126.057-.255.111-.385.161a1.4,1.4,0,0,0-.9,1.306v.513a.467.467,0,0,1-.467.467H8.4a.467.467,0,0,1-.467-.467v-.513a1.4,1.4,0,0,0-.9-1.307q-.2-.074-.386-.161a1.4,1.4,0,0,0-1.566.28l-.365.365a.467.467,0,0,1-.66,0h0l-1.319-1.317a.467.467,0,0,1,0-.66l.365-.366a1.4,1.4,0,0,0,.28-1.566c-.057-.126-.111-.255-.161-.385a1.4,1.4,0,0,0-1.306-.9H1.4a.467.467,0,0,1-.467-.467V168.4a.467.467,0,0,1,.467-.467h.513a1.4,1.4,0,0,0,1.307-.9q.074-.2.161-.386a1.4,1.4,0,0,0-.28-1.566l-.367-.365a.467.467,0,0,1,0-.66h0l1.319-1.319a.467.467,0,0,1,.66,0l.366.365a1.4,1.4,0,0,0,1.566.28c.126-.057.255-.111.385-.161a1.4,1.4,0,0,0,.9-1.306V161.4a.467.467,0,0,1,.467-.467h1.867a.467.467,0,0,1,.467.467v.513a1.4,1.4,0,0,0,.9,1.307q.2.074.386.161a1.4,1.4,0,0,0,1.566-.28l.365-.365a.469.469,0,0,1,.66,0l1.319,1.319a.467.467,0,0,1,0,.66l-.365.366a1.4,1.4,0,0,0-.28,1.566c.057.126.111.255.161.385a1.4,1.4,0,0,0,1.306.9h.513a.467.467,0,0,1,.467.467Z" transform="translate(0 -160)"/></g><g transform="translate(5.131 14.467)"><path class="a" d="M96.352,252.013c0-.112-.013-.224-.026-.335s-.033-.238-.057-.354c-.016-.076-.038-.151-.058-.227q-.039-.144-.088-.284c-.023-.065-.047-.129-.071-.193a4.159,4.159,0,0,0-.206-.437c-.006-.011-.01-.022-.016-.033a4.138,4.138,0,0,0-.42-.612c-.014-.017-.029-.033-.043-.049-.064-.076-.131-.15-.2-.22-.036-.038-.075-.073-.113-.11s-.093-.086-.14-.127-.114-.1-.173-.143l-.077-.057a4.17,4.17,0,0,0-2.5-.833c-.047,0-.093.007-.14.009-.1,0-.2.008-.3.019-.053.006-.106.012-.159.019a4.274,4.274,0,0,0-.452.084,4.2,4.2,0,0,0,0,8.138.107.107,0,0,1,.023,0,4.461,4.461,0,0,0,.489.093c.109.014.217.016.327.021.073,0,.14.014.216.014.133,0,.271-.009.412-.023a.459.459,0,0,0,.047-.006c.113-.013.228-.029.345-.053.047-.009.09-.021.135-.031.082-.019.164-.039.248-.064.065-.02.129-.042.193-.065l.2-.072c.066-.025.122-.054.182-.082.078-.036.156-.071.233-.113h0a5.523,5.523,0,0,0,1.2-.864,1.469,1.469,0,0,0,.25-.306,4.982,4.982,0,0,0,.7-1.918c.013-.09.025-.18.032-.272s.011-.168.013-.252c0-.027,0-.052,0-.078C96.361,252.137,96.354,252.077,96.352,252.013Zm-.93.306c0,.039,0,.077-.006.116-.008.113-.023.226-.042.339a3.274,3.274,0,0,1-1.64,2.287c-.058.03-.115.059-.172.085l-.039.019a3.37,3.37,0,0,1-.851.258l-.063.01c-.058.008-.116.015-.173.021-.075.007-.151.01-.228.012h-.1a3.27,3.27,0,0,1-.33-.021l-.056-.007a3.451,3.451,0,0,1-.381-.072,3.267,3.267,0,0,1,0-6.328h0a3.38,3.38,0,0,1,.82-.1,3.228,3.228,0,0,1,.4.027c.035,0,.07.011.105.016.1.016.2.036.3.061l.1.025a3.3,3.3,0,0,1,.712.3l.106.065c.074.047.145.093.216.147.038.028.076.055.112.084a3.364,3.364,0,0,1,.263.233c.033.034.063.07.1.105.054.058.106.118.156.181.035.043.068.088.1.133.047.067.093.137.135.208l.07.116a3.2,3.2,0,0,1,.161.342c.019.047.035.093.051.14.03.086.056.173.079.26.012.047.025.088.035.133a3.291,3.291,0,0,1,.059.382c0,.034,0,.069.005.1C95.424,252.1,95.426,252.211,95.422,252.319Z" transform="translate(-87.959 -248)"/></g><g transform="translate(5.09)"><path class="a" d="M108.771,9.8H107.3a.456.456,0,0,1-.435-.306,9.72,9.72,0,0,0-.524-1.265.457.457,0,0,1,.09-.527l1.041-1.042a1.4,1.4,0,0,0,0-1.979L105.49,2.7a1.4,1.4,0,0,0-1.979,0l-1.04,1.04a.457.457,0,0,1-.526.09,9.7,9.7,0,0,0-1.266-.527.455.455,0,0,1-.308-.435V1.4a1.4,1.4,0,0,0-1.4-1.4h-2.8a1.4,1.4,0,0,0-1.4,1.4V2.868a.455.455,0,0,1-.306.435,9.725,9.725,0,0,0-1.265.526.456.456,0,0,1-.527-.09L91.631,2.7a1.4,1.4,0,0,0-1.979,0L87.671,4.679a1.4,1.4,0,0,0,0,1.98L89.2,8.192a.467.467,0,0,0,.661-.659L88.331,6a.467.467,0,0,1,0-.66L90.312,3.36a.467.467,0,0,1,.66,0L92.014,4.4a1.387,1.387,0,0,0,1.6.263,8.828,8.828,0,0,1,1.144-.476A1.388,1.388,0,0,0,95.7,2.868V1.4a.467.467,0,0,1,.467-.467h2.8a.467.467,0,0,1,.467.467V2.868a1.388,1.388,0,0,0,.943,1.32,8.8,8.8,0,0,1,1.144.476,1.391,1.391,0,0,0,1.6-.264l1.043-1.04a.467.467,0,0,1,.66,0l1.981,1.981a.467.467,0,0,1,0,.659L105.77,7.043a1.389,1.389,0,0,0-.263,1.6,8.83,8.83,0,0,1,.476,1.144,1.388,1.388,0,0,0,1.321.943h1.468a.467.467,0,0,1,.467.467V14a.467.467,0,0,1-.467.467H107.3a1.388,1.388,0,0,0-1.32.943,8.793,8.793,0,0,1-.476,1.144,1.389,1.389,0,0,0,.264,1.6l1.041,1.043a.467.467,0,0,1,0,.66L104.83,21.84a.467.467,0,0,1-.659,0l-1.533-1.53a.467.467,0,1,0-.67.649l.011.011,1.533,1.53a1.4,1.4,0,0,0,1.979,0l1.981-1.98a1.4,1.4,0,0,0,0-1.98L106.432,17.5a.457.457,0,0,1-.09-.526,9.694,9.694,0,0,0,.527-1.266.455.455,0,0,1,.435-.308h1.468a1.4,1.4,0,0,0,1.4-1.4V11.2A1.4,1.4,0,0,0,108.771,9.8Z" transform="translate(-87.261)"/></g><g transform="translate(10.979 6.536)"><path class="a" d="M196.929,113.823a6.073,6.073,0,0,0-8.579,0,.467.467,0,0,0,.66.66,5.133,5.133,0,0,1,7.308,7.211l-.049.049a.467.467,0,0,0,.648.671l.011-.011A6.073,6.073,0,0,0,196.929,113.823Z" transform="translate(-188.219 -112.049)"/></g></svg>