<?xml version="1.0" encoding="iso-8859-1"?>
<!-- Generator: Adobe Illustrator 19.0.0, SVG Export Plug-In . SVG Version: 6.00 Build 0)  -->
<svg version="1.1" id="Layer_1" xmlns="http://www.w3.org/2000/svg" xmlns:xlink="http://www.w3.org/1999/xlink" x="0px" y="0px"
	 viewBox="0 0 512 512" style="enable-background:new 0 0 512 512;" xml:space="preserve">
<circle style="fill:#EDEDED;" cx="256" cy="256" r="245.801"/>
<path d="M256,512c-68.38,0-132.667-26.628-181.02-74.98S0,324.38,0,256S26.628,123.333,74.98,74.98S187.62,0,256,0
	c68.381,0,132.667,26.628,181.019,74.98C485.372,123.333,512,187.62,512,256s-26.628,132.667-74.981,181.02
	C388.667,485.372,324.381,512,256,512z M256,20.398C126.089,20.398,20.398,126.089,20.398,256S126.089,491.602,256,491.602
	S491.602,385.911,491.602,256S385.911,20.398,256,20.398z"/>
<circle style="fill:#FFBC52;" cx="256" cy="256" r="197.283"/>
<path d="M256,463.486c-114.409,0-207.486-93.078-207.486-207.486S141.591,48.514,256,48.514S463.487,141.591,463.487,256
	S370.409,463.486,256,463.486z M256,68.912C152.839,68.912,68.912,152.839,68.912,256S152.839,443.088,256,443.088
	S443.089,359.161,443.089,256S359.161,68.912,256,68.912z"/>
<circle style="fill:#EDEDED;" cx="256" cy="256" r="23.717"/>
<path d="M402.71,280.478c-0.358,0-0.718-0.019-1.083-0.057c-5.601-0.592-9.664-5.612-9.072-11.214
	c0.506-4.799,0.763-9.695,0.763-14.552c0-5.633,4.567-10.199,10.199-10.199c5.632,0,10.199,4.566,10.199,10.199
	c0,5.57-0.295,11.186-0.876,16.694C412.287,276.587,407.862,280.478,402.71,280.478z"/>
<path d="M256,289.916c15.149,0,28.007-9.985,32.347-23.717h58.211c5.632,0,10.199-4.566,10.199-10.199s-4.567-10.199-10.199-10.199
	h-58.211c-3.322-10.512-11.635-18.826-22.148-22.148V95.367c0-5.633-4.567-10.199-10.199-10.199
	c-5.633,0-10.199,4.566-10.199,10.199v128.286c-13.733,4.34-23.717,17.198-23.717,32.347
	C222.084,274.701,237.299,289.916,256,289.916z M256,242.482c7.455,0,13.518,6.064,13.518,13.518
	c0,7.454-6.063,13.518-13.518,13.518c-7.455,0-13.518-6.064-13.518-13.518C242.482,248.546,248.545,242.482,256,242.482z"/>
<path d="M396.577,300.608c-5.217-2.122-11.167,0.39-13.289,5.607c-21.1,51.899-70.935,85.434-126.964,85.434
	c-75.538,0-136.994-61.455-136.994-136.994c0-45.116,22.526-87.467,59.398-112.893l0.373,0.881
	c3.246,7.671,13.579,8.951,18.598,2.304l14.187-18.786c5.019-6.646,0.963-16.233-7.303-17.258l-23.362-2.897
	c-8.266-1.025-14.542,7.283-11.296,14.954l0.71,1.677c-20.48,13.322-37.714,31.3-50.112,52.406
	c-14.126,24.046-21.593,51.575-21.593,79.612c0,86.786,70.606,157.392,157.392,157.392c31.925,0,62.666-9.508,88.901-27.495
	c25.608-17.558,45.305-41.99,56.958-70.655C404.306,308.679,401.796,302.73,396.577,300.608z"/>
<g>
</g>
<g>
</g>
<g>
</g>
<g>
</g>
<g>
</g>
<g>
</g>
<g>
</g>
<g>
</g>
<g>
</g>
<g>
</g>
<g>
</g>
<g>
</g>
<g>
</g>
<g>
</g>
<g>
</g>
</svg>
